<svg xmlns="http://www.w3.org/2000/svg" viewBox="0 -9.3 354.5 97.7">
	<path fill="#fff" d="M136.385 10.438c-1.949 0-4.233-2.244-8.04-2.244-3.388 0-5.579 1.918-5.579 4.48 0 2.164 1.262 4.016 6.597 4.732 7.445 1.045 10.237 2.969 10.237 6.812 0 4.973-4.317 8.018-11.595 8.018-5.5 0-9.902-2.316-9.902-3.521 0-.887 1.02-.77 1.862-.77 1.78 0 3.692 2.078 8.35 2.078 3.895 0 5.306-2.238 5.306-4.641 0-3.047-.705-4.527-5.445-5.088-6.854-.801-10.07-2.645-10.07-6.814 0-4.645 3.896-7.689 10.326-7.689 4.229 0 9.396 2.08 9.396 3.525C137.824 9.956 136.974 10.438 136.385 10.438M150.26 30.479c3.215 0 5.924-2.25 5.924-5.131 0-1.848-1.521-3.369-3.805-3.369-2.795 0-6.185 2.24-6.185 4.805C146.195 28.872 148.061 30.479 150.26 30.479M142.81 27.351c0-3.289 3.135-5.129 7.027-5.613 3.978-.477 6.176-2.002 6.176-3.686 0-2.404-1.863-4.172-4.062-4.172h-.677c-2.455 0-3.553 2.406-5.417 2.406-.511 0-1.015.08-1.015-.559 0-1.6 3.385-2.648 6.432-2.648 8.97 0 8.295 3.129 8.295 10.906v5.848c0 1.047-.514 1.604-1.526 1.604-.849 0-2.367-.557-3.726-.557-2.535 0-3.212 1.117-5.921 1.117C145.349 31.997 142.81 30.231 142.81 27.351M172.011 24.144c1.184 0 2.191-.883 2.701-2.564l1.777-6.334c.426-1.363 1.354-2.078 2.629-2.078.25 0 1.438.074 1.521 1.117.084.562-.594 2.084-.594 2.166l-4.824 13.307c-.51 1.438-1.438 2.164-2.875 2.164-1.863 0-3.047-.482-3.811-2.645l-4.738-13.229c-.764-2.078-.342-2.807 1.016-2.807 1.941 0 2.535.324 3.381 4.01C169.302 21.979 169.976 24.144 172.011 24.144M193.715 30.317c3.387 0 6.772-2.646 6.772-7.615 0-5.609-3.301-7.855-6.854-7.855-3.393 0-6.855 2.645-6.855 7.211C186.779 27.186 189.482 30.317 193.715 30.317M193.635 32.081c-6.266 0-10.16-3.77-10.16-9.541 0-5.447 3.979-9.461 9.312-9.461 7.104 0 11.082 3.287 11.082 9.541C203.869 28.392 199.892 32.081 193.635 32.081M210.679 8.194c-1.27 0-1.688-.398-1.688-1.043s.42-1.047 1.354-1.047c.848 0 1.689.248 1.689 1.047C212.037 7.796 211.191 8.194 210.679 8.194M212.461 28.952c0 1.844-.592 2.807-1.777 2.807-1.856 0-2.117-.479-2.117-4.168V16.21c0-1.926.429-2.887 1.863-2.887 2.031 0 2.031.881 2.031 4.328V28.952L212.461 28.952zM227.562 13.565c.681 0 1.439.078 1.439 1.279 0 .963-1.439 1.201-2.793 1.924-2.201 1.125-2.031 1.205-2.791 1.926-.765 1.041-1.188 2.162-1.188 3.525v6.893c0 1.842-.592 2.725-1.69 2.725-2.203 0-2.541-.482-2.541-3.85V15.886c0-1.844.684-2.809 2.117-2.809 1.188 0 3.639.646 4.062.646C225.537 13.726 226.385 13.565 227.562 13.565M241.756 22.476c0 1.553-.848 2.336-2.285 2.336h-2.793c-1.438 0-2.197-1.102-2.197-2.336 0-1.373.683-2.221 1.945-2.221h3.215C240.998 20.255 241.756 21.229 241.756 22.476M256.929 8.753c-.332.242-.934 1.52-.934 2.006 0 .398.172.879.428 1.275.254.404 1.604 1.205 1.604 1.934 0 .715-.51.635-1.604 1.596-.682.568-1.611 1.846-1.611 3.451v8.254c0 3.686-.336 4.33-2.026 4.33-1.695 0-2.029-.645-2.029-4.33l-.086-8.096c0-1.766-.506-2.482-1.188-3.365-.508-.639-1.522-1.125-1.522-1.768 0-.801.596-.801 1.522-1.92.427-.561.595-.926 1.863-4.09.422-1.041 1.438-2.523 4.736-2.523 1.858 0 2.451.521 2.451 1.396C258.535 7.632 258.623 7.472 256.929 8.753M268.691 30.479c3.222 0 5.929-2.25 5.929-5.131 0-1.848-1.525-3.369-3.812-3.369-2.793 0-6.18 2.24-6.18 4.805C264.631 28.872 266.494 30.479 268.691 30.479M261.244 27.351c0-3.289 3.133-5.129 7.026-5.613 3.978-.477 6.176-2.002 6.176-3.686 0-2.404-1.858-4.172-4.061-4.172h-.682c-2.451 0-3.556 2.406-5.414 2.406-.508 0-1.019.08-1.019-.559 0-1.6 3.386-2.648 6.433-2.648 8.979 0 8.299 3.129 8.299 10.906v5.848c0 1.047-.506 1.604-1.521 1.604-.846 0-2.373-.557-3.727-.557-2.541 0-3.219 1.117-5.93 1.117C263.785 31.997 261.244 30.231 261.244 27.351M285.871 8.194c-1.271 0-1.688-.398-1.688-1.043s.42-1.047 1.354-1.047c.848 0 1.69.248 1.69 1.047C287.226 7.796 286.383 8.194 285.871 8.194M287.648 28.952c0 1.844-.59 2.807-1.776 2.807-1.854 0-2.115-.479-2.115-4.168V16.21c0-1.926.428-2.887 1.861-2.887 2.03 0 2.03.881 2.03 4.328V28.952zM301.908 13.565c.678 0 1.438.078 1.438 1.279 0 .963-.592 1.201-1.941 1.924-2.202 1.125-2.034 1.205-2.795 1.926-.76 1.041-1.184 2.162-1.184 3.525v6.893c0 1.842-.596 2.725-1.693 2.725-2.2 0-2.539-.482-2.539-3.85V15.886c0-1.844.677-2.809 2.115-2.809 1.185 0 3.642.646 4.062.646C300.728 13.726 300.728 13.565 301.908 13.565M314.771 21.659h1.439c2.028 0 3.977-1.443 3.977-3.047 0-2.006-1.692-3.93-4.733-3.93-3.218 0-5.166 1.604-5.166 3.688C310.287 20.296 312.236 21.659 314.771 21.659M322.31 22.22l-5.338-.078c-5.248 0-7.104.881-7.104 3.604 0 2.408 2.788 4.734 5.663 4.734 1.361 0 2.378-.162 2.966-.561l2.198-1.369c.427-.24.511-.562 1.354-.562 2.287 0-.168 4.092-6.769 4.092-5.586 0-9.311-3.605-9.311-9.225 0-5.924 3.219-9.777 9.311-9.777 7.277 0 8.886 5.615 8.886 7.699C324.168 21.737 323.656 22.22 322.31 22.22"/>
	<path fill="#fff" d="M130.166 65.487c1.818 1.832 8.021 2.262 19.567 2.262 2.886 0 4.86.76 4.86 2.269 0 1.836-1.672 2.808-4.86 2.808h-25.951c-2.887 0-4.404-.972-4.404-3.668V42.592c0-2.263 1.67-3.339 4.555-3.339 3.347 0 4.712 1.182 4.712 3.339C128.491 65.446 128.491 63.758 130.166 65.487M172.066 69.786c0 2.051-1.403 3.033-3.686 3.033-2.021 0-3.301-.432-3.301-5.393V42.861c.047-1.832 1.469-2.905 3.494-2.905 2.428 0 3.481.969 3.489 5.268L172.066 69.786 172.066 69.786zM194.336 42.123l9.865 12.67c3.957 5.16 8.647 6.728 11.688 6.728 3.797 0 5.928-2.688 5.928-6.049v-12.9c0-1.566.604-2.354 1.972-2.354 1.221 0 1.823 1.12 1.823 3.254v27.245c0 1.688-.909 2.584-2.887 2.584h-1.213c-1.826 0-3.496-.787-4.562-2.021l-14.873-15.361c-1.675-2.135-4.104-3.812-6.384-3.812-4.104 0-6.229 2.242-6.229 6.168v11.998c0 1.569-.303 2.808-1.977 2.808-1.218 0-1.816-.787-1.816-3.252V42.572c0-1.679.76-2.579 2.272-2.579h1.979C191.75 39.991 193.115 40.44 194.336 42.123M245.367 43.275v17.79c0 5.822 5.021 9.812 12.614 9.812 7.597 0 12.605-3.99 12.605-9.812v-17.79c0-2.267.611-3.558 3.496-3.558 2.582 0 3.645.539 3.645 5.064v15.852c0 6.146-4.254 13.582-19.748 13.582-14.588 0-19.756-6.254-19.756-13.582V43.274c0-2.05.762-3.45 2.433-3.45h1.979C244.457 39.823 245.367 41.009 245.367 43.275M315.922 41.55c1.065-1.074 2.43-2.051 6.234-2.051 1.668 0 2.581.105 2.581 1.076 0 .976-.768 1.835-4.258 5.071-6.535 6.037-7.293 7.542-7.293 9.483 0 2.05 1.519 3.562 2.433 4.533 11.854 11.967 12.153 11.854 12.153 12.822 0 .867-.762 1.189-2.889 1.189-4.562 0-5.475-.539-10.641-6.572-3.646-4.312-5.771-5.395-7.748-5.395-3.646 0-5.011.856-10.177 6.901-4.561 5.279-6.229 5.062-9.268 5.062-1.975 0-3.039-.43-3.039-1.188 0-.854 2.125-2.478 4.711-5.17-2.586 2.586 7.742-7.651 8.201-8.196 1.219-1.398 1.977-2.802 1.977-3.988 0-1.293-1.364-3.445-2.127-4.203l-8.354-8.302c-3.037-2.909-.15-3.128.906-3.128 5.172 0 5.479.219 10.03 5.394 2.277 2.585 4.252 3.774 6.531 3.774 1.521 0 3.496-.435 5.012-1.833C312.429 45.431 314.246 43.166 315.922 41.55"/>
	<path fill="#fff" d="M53.397-7.825C27.258-10.065,4.257,9.304,2.01,35.436c-2.241,26.135,17.123,49.139,43.264,51.381 c26.139,2.246,49.141-17.119,51.384-43.257C98.898,17.427,79.536-5.577,53.397-7.825z M85.297,53.926 c-1.086,1.244-6.658-5.69-9.956-6.694c-4.03-1.221-8.683-3.275-12.113-4.705c0.711,2.802,1.405,8.778,1.364,12.757 c-0.091,9.314-3.412,20.072-13.646,20.072c-10.089,0-15.693-8.395-14.162-17.574c0.819-4.902,2.438-10.904,2.271-11.052 c-0.009-0.01-1.476-0.213-2.97-0.152c-1.813,0.072-2.916,0.586-5.2,0.83c-2.351,0.258-4.87,1.25-7.964,2.768 c-3.535,1.73-6.994,7.275-8.088,5.564c-1.595-2.498,3.917-13.021,10.552-17.627c5.998-4.154,9.582-6.188,11.059-7.432 c1.48-1.25,3.014-2.594,3.411-4.197c0.229-0.908-0.226-2.611-0.681-3.971c-0.32-0.953-1.532-2.914-2.439-5.461 c-0.905-2.551-0.229-5.926,2.142-8.404c2.368-2.482,7.976-2.639,11.252-2.572c3.276,0.064,1.801-0.242,4.47-0.715 c2.673-0.471,3.688,0.025,5.277,0.766c0,0,0.108,0.869-0.559,1.279c-0.607,0.365-1.543,1.141-2.954,1.977 c-1.409,0.836-2.967,2.873-4.417,4.42c-1.452,1.539-1.686,3.734-1.282,5.256c0.358,1.359,2.323,2.984,3.53,4.432 c1.758,1.512,3.633,2.994,3.633,2.994s5.062,2.615,11.032,6.803C83.416,43.486,87.768,51.063,85.297,53.926z"/>
	<path fill="#fff" d="M338.347,55.595c-4.36,0-8.117-3.616-8.117-8.024c0-4.547,3.572-8.072,8.073-8.072 c5.056,0,8.117,3.99,8.117,8.026C346.42,52.348,342.524,55.595,338.347,55.595z M338.303,54.9c3.987,0,7.051-3.2,7.051-7.19 c0-4.175-2.923-7.516-6.913-7.516c-3.896,0-7.099,2.969-7.099,7.145C331.342,51.7,334.311,54.9,338.303,54.9z M339.415,50.169 c-0.604-1.021-1.068-1.671-1.855-1.671c-0.604,0-1.067,0.604-1.207,1.53c-0.047,0.325-0.047,0.882-0.464,0.882 c-0.371,0-0.511-0.37-0.511-1.021v-4.546c0-1.392,0.186-2.042,1.624-2.042c0.743,0,0.651,0.092,2.737,0.092 c1.021,0,1.901,0.836,1.901,1.856c0,0.975-0.185,1.299-0.881,2.042c-0.511,0.556-0.787,0.882-0.787,1.67 c0,0.557,0.509,1.392,0.509,1.716c0,0.14-0.047,0.279-0.277,0.279C340.017,50.958,339.832,50.865,339.415,50.169z M338.303,47.014 c1.159,0,1.854-0.696,1.854-1.531c0-0.788-0.742-1.623-1.763-1.623c-0.882,0-1.765,0.742-1.765,1.577 C336.63,46.271,337.281,47.014,338.303,47.014z"/>
</svg>